<svg width="800" height="470" viewBox="0 0 800 470" xmlns="http://www.w3.org/2000/svg">
  <!-- Background with gradient -->
  <defs>
    <linearGradient id="bgGradient" x1="0%" y1="0%" x2="100%" y2="100%">
      <stop offset="0%" style="stop-color:#0a0e27;stop-opacity:1" />
      <stop offset="100%" style="stop-color:#1a1e3f;stop-opacity:1" />
    </linearGradient>

    <linearGradient id="titleGradient" x1="0%" y1="0%" x2="100%" y2="0%">
      <stop offset="0%" style="stop-color:#ff6b9d;stop-opacity:1" />
      <stop offset="50%" style="stop-color:#c44569;stop-opacity:1" />
      <stop offset="100%" style="stop-color:#4ecdc4;stop-opacity:1" />
    </linearGradient>

    <filter id="glow">
      <feGaussianBlur stdDeviation="3" result="coloredBlur"/>
      <feMerge>
        <feMergeNode in="coloredBlur"/>
        <feMergeNode in="SourceGraphic"/>
      </feMerge>
    </filter>

    <filter id="textGlow">
      <feGaussianBlur stdDeviation="2" result="coloredBlur"/>
      <feMerge>
        <feMergeNode in="coloredBlur"/>
        <feMergeNode in="SourceGraphic"/>
      </feMerge>
    </filter>
  </defs>

  <!-- Background -->
  <rect width="800" height="470" fill="url(#bgGradient)"/>

  <!-- Decorative grid pattern -->
  <g opacity="0.1">
    <line x1="0" y1="117.5" x2="800" y2="117.5" stroke="#4ecdc4" stroke-width="1"/>
    <line x1="0" y1="235" x2="800" y2="235" stroke="#4ecdc4" stroke-width="1"/>
    <line x1="0" y1="352.5" x2="800" y2="352.5" stroke="#4ecdc4" stroke-width="1"/>
    <line x1="200" y1="0" x2="200" y2="470" stroke="#4ecdc4" stroke-width="1"/>
    <line x1="400" y1="0" x2="400" y2="470" stroke="#4ecdc4" stroke-width="1"/>
    <line x1="600" y1="0" x2="600" y2="470" stroke="#4ecdc4" stroke-width="1"/>
  </g>

  <!-- Large decorative circles (color preview) -->
  <circle cx="680" cy="100" r="80" fill="#ff6b9d" opacity="0.3" filter="url(#glow)"/>
  <circle cx="720" cy="370" r="60" fill="#4ecdc4" opacity="0.3" filter="url(#glow)"/>
  <circle cx="120" cy="370" r="50" fill="#c44569" opacity="0.3" filter="url(#glow)"/>

  <!-- Main title -->
  <text x="50" y="160" font-family="Arial, sans-serif" font-size="80" font-weight="bold" fill="url(#titleGradient)" filter="url(#textGlow)">HEXGUESS</text>

  <!-- Feature badges -->
  <g transform="translate(50, 230)">
    <!-- Badge 1 -->
    <rect x="0" y="0" width="180" height="50" rx="25" fill="#ff6b9d" opacity="0.9"/>
    <text x="90" y="33" font-family="Arial, sans-serif" font-size="18" font-weight="bold" fill="#ffffff" text-anchor="middle">11 РЕЖИМОВ</text>

    <!-- Badge 2 -->
    <rect x="200" y="0" width="200" height="50" rx="25" fill="#4ecdc4" opacity="0.9"/>
    <text x="300" y="33" font-family="Arial, sans-serif" font-size="18" font-weight="bold" fill="#0a0e27" text-anchor="middle">RGB И HSL</text>

    <!-- Badge 3 -->
    <rect x="420" y="0" width="160" height="50" rx="25" fill="#c44569" opacity="0.9"/>
    <text x="500" y="33" font-family="Arial, sans-serif" font-size="18" font-weight="bold" fill="#ffffff" text-anchor="middle">РЕКОРДЫ</text>
  </g>

  <!-- Color picker preview (simplified) -->
  <g transform="translate(480, 260)">
    <!-- Color square -->
    <rect x="0" y="0" width="100" height="100" rx="8" fill="#ff6b9d" stroke="#ffffff" stroke-width="3" opacity="0.8"/>

    <!-- RGB sliders representation -->
    <g transform="translate(120, 10)">
      <rect x="0" y="0" width="150" height="20" rx="10" fill="#ff0000" opacity="0.6"/>
      <circle cx="100" cy="10" r="8" fill="#ffffff" stroke="#ff0000" stroke-width="2"/>

      <rect x="0" y="35" width="150" height="20" rx="10" fill="#00ff00" opacity="0.6"/>
      <circle cx="80" cy="45" r="8" fill="#ffffff" stroke="#00ff00" stroke-width="2"/>

      <rect x="0" y="70" width="150" height="20" rx="10" fill="#0000ff" opacity="0.6"/>
      <circle cx="120" cy="80" r="8" fill="#ffffff" stroke="#0000ff" stroke-width="2"/>
    </g>
  </g>

  <!-- Small decorative color samples -->
  <g transform="translate(50, 340)">
    <rect x="0" y="0" width="30" height="30" rx="4" fill="#ff0000"/>
    <rect x="40" y="0" width="30" height="30" rx="4" fill="#00ff00"/>
    <rect x="80" y="0" width="30" height="30" rx="4" fill="#0000ff"/>
    <rect x="120" y="0" width="30" height="30" rx="4" fill="#ffff00"/>
    <rect x="160" y="0" width="30" height="30" rx="4" fill="#ff00ff"/>
    <rect x="200" y="0" width="30" height="30" rx="4" fill="#00ffff"/>
  </g>

  <!-- Bottom tagline -->
  <text x="50" y="430" font-family="Arial, sans-serif" font-size="20" fill="#4ecdc4" opacity="0.8">ТРЕНИРУЙ ГЛАЗОМЕР • УГАДЫВАЙ ЦВЕТА • СОРЕВНУЙСЯ</text>
</svg>
